<mxfile host="app.diagrams.net" modified="2022-10-27T14:28:47.467Z" agent="5.0 (Windows NT 10.0; Win64; x64) AppleWebKit/537.36 (KHTML, like Gecko) Chrome/106.0.0.0 Safari/537.36" etag="9qQEX7efiJDKFJxP3eRr" version="20.5.1" type="github">
  <diagram id="HLPGwT5bYTU5-uB_MpvR" name="第 1 页">
    <mxGraphModel dx="1550" dy="835" grid="1" gridSize="10" guides="1" tooltips="1" connect="1" arrows="1" fold="1" page="1" pageScale="1" pageWidth="827" pageHeight="1169" math="0" shadow="0">
      <root>
        <mxCell id="0" />
        <mxCell id="1" parent="0" />
        <mxCell id="_xAtVMIxaWQfQTgmSRaY-1" value="" style="rounded=0;whiteSpace=wrap;html=1;fillColor=#dae8fc;strokeColor=#6c8ebf;" vertex="1" parent="1">
          <mxGeometry x="40" y="260" width="530" height="330" as="geometry" />
        </mxCell>
        <mxCell id="_xAtVMIxaWQfQTgmSRaY-2" value="goo函数的执行上下文" style="text;html=1;align=center;verticalAlign=middle;resizable=0;points=[];autosize=1;strokeColor=none;fillColor=none;" vertex="1" parent="1">
          <mxGeometry x="235" y="260" width="140" height="30" as="geometry" />
        </mxCell>
        <mxCell id="_xAtVMIxaWQfQTgmSRaY-3" value="" style="rounded=0;whiteSpace=wrap;html=1;fillColor=#f8cecc;strokeColor=#b85450;" vertex="1" parent="1">
          <mxGeometry x="50" y="320" width="240" height="215" as="geometry" />
        </mxCell>
        <mxCell id="_xAtVMIxaWQfQTgmSRaY-4" value="变量环境" style="text;html=1;align=center;verticalAlign=middle;resizable=0;points=[];autosize=1;strokeColor=none;fillColor=none;" vertex="1" parent="1">
          <mxGeometry x="135" y="320" width="70" height="30" as="geometry" />
        </mxCell>
        <mxCell id="_xAtVMIxaWQfQTgmSRaY-5" value="&lt;font color=&quot;#ff3333&quot;&gt;aa=1&lt;/font&gt;&lt;br&gt;cc=4" style="text;html=1;align=center;verticalAlign=middle;resizable=0;points=[];autosize=1;strokeColor=none;fillColor=none;" vertex="1" parent="1">
          <mxGeometry x="70" y="405" width="50" height="40" as="geometry" />
        </mxCell>
        <mxCell id="_xAtVMIxaWQfQTgmSRaY-15" value="" style="group" vertex="1" connectable="0" parent="1">
          <mxGeometry x="320" y="320" width="230" height="215" as="geometry" />
        </mxCell>
        <mxCell id="_xAtVMIxaWQfQTgmSRaY-7" value="" style="rounded=0;whiteSpace=wrap;html=1;fillColor=#fff2cc;strokeColor=#d6b656;" vertex="1" parent="_xAtVMIxaWQfQTgmSRaY-15">
          <mxGeometry width="230" height="215" as="geometry" />
        </mxCell>
        <mxCell id="_xAtVMIxaWQfQTgmSRaY-8" value="词法环境" style="text;html=1;align=center;verticalAlign=middle;resizable=0;points=[];autosize=1;strokeColor=none;fillColor=none;" vertex="1" parent="_xAtVMIxaWQfQTgmSRaY-15">
          <mxGeometry x="75" width="70" height="30" as="geometry" />
        </mxCell>
        <mxCell id="_xAtVMIxaWQfQTgmSRaY-10" value="bb=2" style="rounded=0;whiteSpace=wrap;html=1;" vertex="1" parent="_xAtVMIxaWQfQTgmSRaY-15">
          <mxGeometry x="25" y="135" width="175" height="70" as="geometry" />
        </mxCell>
        <mxCell id="_xAtVMIxaWQfQTgmSRaY-21" style="edgeStyle=orthogonalEdgeStyle;rounded=0;orthogonalLoop=1;jettySize=auto;html=1;exitX=0.5;exitY=1;exitDx=0;exitDy=0;entryX=0.5;entryY=0;entryDx=0;entryDy=0;strokeColor=#FF3333;" edge="1" parent="_xAtVMIxaWQfQTgmSRaY-15" source="_xAtVMIxaWQfQTgmSRaY-12" target="_xAtVMIxaWQfQTgmSRaY-10">
          <mxGeometry relative="1" as="geometry" />
        </mxCell>
        <mxCell id="_xAtVMIxaWQfQTgmSRaY-12" value="bb=3&lt;br&gt;dd=5" style="rounded=0;whiteSpace=wrap;html=1;" vertex="1" parent="_xAtVMIxaWQfQTgmSRaY-15">
          <mxGeometry x="25" y="45" width="175" height="70" as="geometry" />
        </mxCell>
        <mxCell id="_xAtVMIxaWQfQTgmSRaY-20" style="edgeStyle=orthogonalEdgeStyle;rounded=0;orthogonalLoop=1;jettySize=auto;html=1;exitX=0.5;exitY=0;exitDx=0;exitDy=0;entryX=0.5;entryY=0;entryDx=0;entryDy=0;strokeColor=#FF3333;" edge="1" parent="1" source="_xAtVMIxaWQfQTgmSRaY-16" target="_xAtVMIxaWQfQTgmSRaY-12">
          <mxGeometry relative="1" as="geometry">
            <Array as="points">
              <mxPoint x="433" y="350" />
            </Array>
          </mxGeometry>
        </mxCell>
        <mxCell id="_xAtVMIxaWQfQTgmSRaY-16" value="console.log(&lt;font color=&quot;#ff3333&quot;&gt;aa&lt;/font&gt;)" style="text;html=1;strokeColor=none;fillColor=none;align=center;verticalAlign=middle;whiteSpace=wrap;rounded=0;" vertex="1" parent="1">
          <mxGeometry x="630" y="375" width="60" height="30" as="geometry" />
        </mxCell>
        <mxCell id="_xAtVMIxaWQfQTgmSRaY-24" style="edgeStyle=orthogonalEdgeStyle;rounded=0;orthogonalLoop=1;jettySize=auto;html=1;exitX=0.5;exitY=1;exitDx=0;exitDy=0;entryX=1;entryY=0.375;entryDx=0;entryDy=0;entryPerimeter=0;strokeColor=#FF3333;" edge="1" parent="1" source="_xAtVMIxaWQfQTgmSRaY-10" target="_xAtVMIxaWQfQTgmSRaY-5">
          <mxGeometry relative="1" as="geometry" />
        </mxCell>
      </root>
    </mxGraphModel>
  </diagram>
</mxfile>
